<svg width="25" height="28" viewBox="0 0 25 28" fill="none" xmlns="http://www.w3.org/2000/svg">
<path d="M24.8333 14.5833C24.8333 15.0475 24.6489 15.4926 24.3207 15.8208C23.9925 16.149 23.5474 16.3333 23.0833 16.3333H19.7349C19.0303 16.3312 18.3381 16.1476 17.7251 15.8002C17.1121 15.4528 16.5988 14.9534 16.2349 14.35L14.8058 11.977L12.7174 17.0672L15.7671 18.802C16.3946 19.1595 16.9162 19.6767 17.2791 20.301C17.642 20.9254 17.8332 21.6347 17.8333 22.3568V26.25C17.8333 26.7141 17.6489 27.1593 17.3207 27.4874C16.9925 27.8156 16.5474 28 16.0833 28C15.6191 28 15.174 27.8156 14.8458 27.4874C14.5176 27.1593 14.3333 26.7141 14.3333 26.25V22.3568C14.3332 22.254 14.306 22.153 14.2544 22.0641C14.2027 21.9752 14.1285 21.9015 14.0393 21.8505L9.27692 19.1403C8.44578 18.6345 7.82183 17.8494 7.51679 16.9255C7.21175 16.0016 7.24553 14.9993 7.61209 14.098L9.08325 10.5H7.02525C6.91689 10.5001 6.8107 10.5304 6.71859 10.5875C6.62647 10.6446 6.55208 10.7262 6.50375 10.8232L4.81559 14.1995C4.60796 14.6147 4.24389 14.9305 3.80347 15.0773C3.36304 15.2241 2.88233 15.19 2.46709 14.9823C2.05184 14.7747 1.73609 14.4106 1.58928 13.9702C1.44247 13.5298 1.47663 13.0491 1.68425 12.6338L3.37242 9.2575C3.70972 8.57764 4.23068 8.00582 4.87628 7.60683C5.52188 7.20784 6.26631 6.99763 7.02525 7H13.5866C14.2912 7.00215 14.9834 7.18577 15.5964 7.53315C16.2094 7.88054 16.7227 8.37998 17.0866 8.98333L19.2333 12.551C19.2853 12.6374 19.3589 12.7089 19.4468 12.7584C19.5348 12.8078 19.634 12.8337 19.7349 12.8333H23.0833C23.5474 12.8333 23.9925 13.0177 24.3207 13.3459C24.6489 13.6741 24.8333 14.1192 24.8333 14.5833ZM7.39975 19.6583C7.18634 19.573 6.95819 19.5305 6.72835 19.5333C6.49851 19.5361 6.27147 19.5842 6.06021 19.6747C5.84895 19.7653 5.6576 19.8966 5.49709 20.0611C5.33658 20.2257 5.21006 20.4202 5.12475 20.6337C5.08142 20.7418 5.00669 20.8345 4.91021 20.8998C4.81373 20.9651 4.69991 21 4.58342 21H2.08325C1.61912 21 1.174 21.1844 0.845815 21.5126C0.517626 21.8408 0.333252 22.2859 0.333252 22.75C0.333252 23.2141 0.517626 23.6593 0.845815 23.9874C1.174 24.3156 1.61912 24.5 2.08325 24.5H4.58342C5.40013 24.5026 6.1987 24.2592 6.87503 23.8013C7.55137 23.3435 8.07409 22.6926 8.37508 21.9333C8.46046 21.7199 8.50295 21.4918 8.50014 21.2619C8.49733 21.0321 8.44926 20.8051 8.35869 20.5938C8.26812 20.3825 8.13681 20.1912 7.97228 20.0307C7.80774 19.8702 7.61319 19.7436 7.39975 19.6583ZM14.9166 5.83333C15.4934 5.83333 16.0574 5.66228 16.537 5.34179C17.0166 5.0213 17.3905 4.56578 17.6112 4.03283C17.832 3.49988 17.8897 2.91343 17.7772 2.34765C17.6647 1.78188 17.3869 1.26218 16.979 0.854273C16.5711 0.44637 16.0514 0.168584 15.4856 0.0560443C14.9198 -0.056496 14.3334 0.00126375 13.8004 0.222019C13.2675 0.442775 12.812 0.816611 12.4915 1.29625C12.171 1.7759 11.9999 2.33981 11.9999 2.91667C11.9999 3.69022 12.3072 4.43208 12.8542 4.97906C13.4012 5.52604 14.143 5.83333 14.9166 5.83333Z" fill="white"/>
</svg>
